<?xml version="1.0" standalone="no"?>
<!DOCTYPE svg PUBLIC "-//W3C//DTD SVG 20010904//EN"
 "http://www.w3.org/TR/2001/REC-SVG-20010904/DTD/svg10.dtd">
<svg version="1.0" xmlns="http://www.w3.org/2000/svg"
 width="261.000000pt" height="261.000000pt" viewBox="0 0 261.000000 261.000000"
 preserveAspectRatio="xMidYMid meet">
<metadata>
Created by potrace 1.11, written by Peter Selinger 2001-2013
</metadata>
<g transform="translate(0.000000,261.000000) scale(0.100000,-0.100000)"
fill="#000000" stroke="none">
<path d="M1890 2464 c-58 -13 -120 -25 -137 -28 -18 -3 -54 -11 -80 -17 -158
-36 -173 -36 -272 5 l-89 37 -213 3 c-118 2 -222 7 -231 11 -10 4 -18 3 -18
-2 0 -4 -86 -9 -191 -10 -104 0 -192 -3 -194 -5 -2 -2 -5 -340 -7 -751 -3
-569 -7 -750 -16 -759 -14 -14 -16 -32 -3 -24 14 9 17 -77 16 -412 0 -260 2
-303 15 -306 15 -5 251 -20 280 -18 8 0 76 11 150 24 l135 23 0 412 c0 226 4
415 8 420 7 6 278 11 807 13 13 0 15 36 18 250 l3 250 -48 1 c-26 0 -73 2
-103 4 -30 1 -147 6 -260 10 -381 12 -403 14 -409 23 -3 6 -6 81 -6 169 l1
158 132 1 c109 1 132 -1 132 -13 0 -12 2 -12 14 0 11 11 51 14 178 14 89 1
171 -3 180 -8 10 -6 19 -5 23 0 3 6 62 10 133 9 197 0 210 1 192 15 -22 18
-26 242 -4 274 11 17 11 23 2 21 -10 -2 -13 23 -13 109 0 67 -4 114 -10 116
-5 2 -57 -7 -115 -19z m-1058 -54 c-2 -8 -26 -65 -54 -127 l-50 -111 -62 75
c-33 42 -80 99 -102 127 l-42 51 157 0 c133 0 156 -2 153 -15z m378 11 c3 -1
-15 -13 -40 -27 -25 -14 -63 -36 -85 -49 l-40 -23 -59 53 -59 52 139 -2 c76
-1 141 -3 144 -4z m720 3 c0 -4 -21 -32 -47 -63 -26 -31 -49 -59 -53 -64 -5
-6 -172 37 -230 60 -8 3 55 20 140 38 167 35 190 38 190 29z m-652 -70 c-2 -2
-22 -6 -44 -9 -21 -4 -50 -8 -63 -10 -31 -5 -23 2 47 41 l57 33 3 -26 c2 -13
2 -27 0 -29z m97 36 c22 -10 36 -19 30 -20 -5 0 -26 -3 -46 -6 -30 -4 -37 -2
-42 15 -9 36 1 37 58 11z m592 -136 c-2 -2 -19 1 -38 7 -19 6 -40 13 -47 15
-9 3 3 24 35 65 l48 62 3 -73 c2 -40 1 -74 -1 -76z m-1357 2 c90 -107 90 -110
11 -120 -25 -4 -63 -9 -83 -12 l-38 -6 0 133 c0 112 2 131 13 119 8 -8 51 -59
97 -114z m286 61 l20 -63 -69 -37 c-38 -20 -67 -33 -65 -28 24 62 84 191 88
191 3 0 15 -28 26 -63z m104 -17 c0 -10 -49 -30 -53 -22 -2 4 -7 21 -11 37 -4
17 -9 39 -13 50 -4 14 6 9 36 -20 22 -21 41 -42 41 -45z m460 34 c0 -15 -115
-264 -122 -264 -4 0 -8 26 -9 58 0 31 -2 87 -5 125 -2 37 0 67 4 68 32 2 98
12 101 15 7 6 31 5 31 -2z m282 -60 l57 -16 -46 -60 c-26 -33 -50 -61 -53 -63
-4 -2 -29 26 -55 63 -26 37 -59 81 -72 99 l-25 32 69 -20 c37 -10 94 -26 125
-35z m-461 14 c1 -13 2 -36 4 -53 12 -144 14 -206 7 -201 -10 6 -202 242 -202
248 0 2 15 5 33 6 17 2 48 7 67 11 66 16 90 13 91 -11z m275 -89 c30 -61 54
-112 52 -114 -8 -7 -242 -85 -245 -82 -3 4 129 307 134 307 2 0 28 -50 59
-111z m-541 9 c-7 -135 -5 -130 -30 -53 l-24 70 21 18 c31 26 36 21 33 -35z
m111 -43 c27 -33 51 -62 54 -65 3 -3 24 -28 48 -56 46 -56 43 -62 -23 -59 -22
2 -68 3 -102 4 l-63 1 6 78 c5 69 12 160 13 172 1 5 2 4 67 -75z m771 64 c28
-11 27 -11 -46 -45 -40 -19 -76 -34 -78 -34 -2 0 10 20 28 45 34 47 49 52 96
34z m-939 -111 c16 -51 27 -95 26 -97 -4 -4 -204 108 -204 114 0 5 131 74 142
75 4 0 20 -42 36 -92z m1014 -26 c2 -46 1 -85 -3 -88 -6 -3 -117 41 -129 52
-2 3 25 31 60 64 36 32 66 57 67 57 1 -1 3 -39 5 -85z m-312 16 c0 -17 -10 -6
-25 25 l-16 32 20 -25 c11 -14 21 -28 21 -32z m176 7 c-41 -36 -52 -40 -74
-26 -9 5 5 16 45 34 32 15 60 27 63 27 3 0 -13 -16 -34 -35z m-1189 -67 c-25
-34 -49 -64 -54 -65 -9 -3 -69 83 -66 94 2 5 11 9 20 10 53 5 119 16 122 19 2
2 8 4 13 4 5 0 -11 -28 -35 -62z m261 -36 c34 -20 62 -39 62 -42 0 -6 -236
-120 -249 -120 -4 0 -2 37 5 83 7 45 13 98 15 117 5 59 -7 62 167 -38z m842
40 c0 -4 -5 -13 -12 -20 -18 -18 -28 -15 -28 8 0 13 7 20 20 20 11 0 20 -4 20
-8z m-1055 -59 c-4 -32 -9 -76 -13 -97 l-7 -39 -28 41 -28 42 38 55 c21 30 39
54 41 55 1 0 0 -26 -3 -57z m943 32 c7 -14 12 -30 12 -35 0 -5 -47 -8 -105 -7
-57 0 -103 2 -101 4 3 4 167 61 177 62 3 1 11 -10 17 -24z m-1100 -129 c-17
-23 -35 -45 -38 -49 -5 -6 -6 160 -1 183 0 3 17 -17 36 -44 l34 -49 -31 -41z
m1339 95 c13 -8 -1 -10 -54 -10 -40 1 -73 3 -73 6 0 3 10 13 22 23 20 16 27
17 55 5 18 -8 41 -18 50 -24z m-877 -211 c0 -126 -2 -150 -14 -143 -7 4 -68
44 -135 88 l-121 80 123 62 c67 34 128 62 135 62 9 1 12 -35 12 -149z m-375
84 c15 -19 25 -37 24 -39 -6 -5 -122 -25 -125 -22 -4 4 60 96 67 97 4 0 19
-16 34 -36z m-26 -181 c-75 -141 -90 -167 -97 -175 -4 -4 -8 51 -8 122 l-2
129 52 8 c28 5 64 10 79 11 l28 2 -52 -97z m261 -11 c63 -41 119 -78 123 -82
6 -5 -85 -124 -158 -208 -3 -3 -33 95 -40 128 -2 8 -17 68 -33 132 -17 68 -25
115 -18 111 6 -4 63 -40 126 -81z m-121 -135 c22 -86 41 -161 41 -166 0 -8
-258 54 -269 64 -2 3 1 10 6 17 5 7 34 58 63 113 29 55 64 120 78 145 l26 44
7 -29 c3 -17 25 -101 48 -188z m579 22 c78 -2 142 -6 142 -9 0 -4 -57 -29
-127 -57 l-128 -52 -61 57 c-34 31 -62 60 -63 63 0 4 20 5 47 4 26 -2 111 -4
190 -6z m469 -18 c7 -1 -27 -36 -75 -79 -137 -121 -123 -119 -121 -16 2 49 4
92 6 96 3 6 119 5 190 -1z m-642 -113 c-5 -3 -31 -9 -57 -13 l-48 -7 0 67 0
68 58 -54 c31 -30 53 -57 47 -61z m408 10 c-2 -57 -6 -104 -6 -105 -1 0 -20 5
-42 12 -22 7 -87 28 -145 46 l-105 32 50 18 c28 9 95 35 150 58 55 22 101 40
102 40 1 1 -1 -45 -4 -101z m-551 -34 c-2 -9 -120 -39 -127 -32 -2 2 24 37 58
78 l62 74 5 -54 c3 -30 4 -60 2 -66z m825 -75 c-3 -99 -7 -182 -9 -184 -2 -2
-52 33 -111 78 l-108 82 53 50 c64 60 172 155 176 155 2 0 1 -81 -1 -181z
m-1172 25 c61 -15 112 -28 114 -30 2 -2 -33 -43 -78 -93 -44 -50 -83 -86 -86
-81 -3 4 -25 61 -49 124 -35 93 -41 116 -28 112 10 -3 67 -17 127 -32z m452
-65 c-30 -55 -58 -101 -63 -102 -9 -2 -8 162 1 172 5 5 79 26 108 30 5 0 -16
-44 -46 -100z m273 54 c69 -20 129 -40 134 -44 5 -4 -9 -22 -30 -41 -21 -18
-58 -52 -83 -75 -25 -23 -49 -43 -52 -43 -3 0 -14 19 -24 43 -10 23 -29 67
-43 97 -36 82 -42 100 -34 100 4 0 63 -16 132 -37z m-122 -103 c27 -63 49
-116 48 -117 -1 -1 -59 -5 -129 -8 l-126 -6 72 130 c40 71 75 127 78 123 4 -4
29 -59 57 -122z m-256 -23 c-4 -65 -5 -68 -20 -50 -46 50 -122 146 -122 152 0
5 30 15 68 23 l67 14 5 -35 c3 -20 3 -67 2 -104z m-102 -14 l81 -98 -53 -7
c-60 -7 -165 -18 -220 -23 -21 -2 -38 -1 -38 3 0 5 143 221 147 222 1 0 38
-44 83 -97z m-361 4 c17 -46 31 -90 31 -98 0 -8 -18 -33 -40 -54 l-41 -40 3
138 c1 75 5 137 9 137 3 0 20 -37 38 -83z m1159 -24 l83 -63 -197 0 -196 0 53
48 c30 26 69 61 89 79 41 37 30 41 168 -64z m-740 -141 c-54 -74 -105 -132
-114 -128 -23 9 -154 109 -154 117 0 5 15 9 33 9 34 1 140 11 145 15 1 1 25 3
53 4 47 1 50 0 37 -17z m-309 -136 c17 -55 30 -100 28 -102 -1 -1 -16 9 -33
24 -103 90 -136 123 -130 130 20 19 92 59 97 53 3 -3 20 -51 38 -105z m347 7
c-2 -60 -5 -109 -5 -111 -1 -1 -26 16 -56 39 -61 46 -62 34 10 127 22 28 43
51 47 52 4 0 6 -48 4 -107z m-205 -11 l36 -26 -40 -53 c-21 -29 -41 -53 -42
-53 -2 0 -10 21 -18 48 -9 26 -24 75 -35 110 l-20 62 41 -31 c23 -17 58 -42
78 -57z m-201 -79 c25 -23 58 -53 75 -67 19 -16 26 -29 20 -35 -32 -31 -178
-131 -183 -126 -3 3 -8 76 -9 162 l-4 157 28 -25 c15 -13 48 -43 73 -66z m321
-10 c27 -20 47 -38 46 -39 -1 -2 -27 -6 -57 -9 -30 -3 -67 -8 -82 -11 -16 -3
-28 -3 -28 1 0 7 63 94 69 95 2 0 26 -17 52 -37z m79 -200 l-1 -128 -104 110
c-117 124 -117 118 5 130 41 4 77 9 79 11 16 16 21 -12 21 -123z m-279 20 c0
-27 3 -117 6 -200 3 -84 3 -153 0 -153 -3 0 -51 59 -107 131 -96 122 -101 131
-84 144 11 7 53 38 94 69 41 30 78 55 83 56 4 0 7 -21 8 -47z m193 -116 c39
-44 70 -81 69 -84 -1 -3 -47 -45 -102 -94 l-101 -90 -1 43 c0 24 -3 120 -5
213 l-5 170 37 -40 c20 -22 68 -75 108 -118z m-348 -102 c22 -27 64 -81 93
-118 l54 -68 -69 5 c-38 2 -85 5 -105 5 l-37 1 3 113 c2 61 3 116 4 122 1 10
1 11 57 -60z m439 -88 c4 -31 3 -57 -2 -58 -9 -1 -31 -4 -112 -19 -30 -6 -56
-8 -58 -6 -4 3 160 145 164 142 1 -1 5 -28 8 -59z"/>
</g>
</svg>
